# xmcd
#
# Track frame offsets:
#	150
#	16276
#	35570
#	47064
#	61567
#	79669
#	91330
#	105318
#	121973
#	132679
#	145164
#
# Disc length: 2100 seconds
#
# Revision: 3
# Processed by: cddbd v1.5.2PL0 Copyright (c) Steve Scherf et al.
# Submitted via: EasyCDDAExtractor 11.0.3.1
#
DISCID=8908320b
DTITLE=Amy Winehouse -  Back To Black (Deluxe Edition) [CD1]
DYEAR=2007
DGENRE=Hip-Hop
TTITLE0=Rehab
TTITLE1=You Know I'm No Good
TTITLE2=Me and Mr. Jones
TTITLE3=Just Friends
TTITLE4=Back To Black
TTITLE5=Love Is A Losing Game
TTITLE6=Tear Dry On Their Own
TTITLE7=Wake Up Alone
TTITLE8=Some Unholy War
TTITLE9=He Can Only Hold Her
TTITLE10=Addicted
EXTD=
EXTT0=
EXTT1=
EXTT2=
EXTT3=
EXTT4=
EXTT5=
EXTT6=
EXTT7=
EXTT8=
EXTT9=
EXTT10=
PLAYORDER=
